<?xml version="1.0" encoding="UTF-8" standalone="no"?>
<svg
   version="1.1"
   id="Capa_1"
   x="0px"
   y="0px"
   viewBox="0 0 380.734 380.734"
   style="enable-background:new 0 0 380.734 380.734;"
   xml:space="preserve"
   width="512px"
   height="512px"
   sodipodi:docname="logo.svg"
   inkscape:version="1.1 (c4e8f9e, 2021-05-24)"
   inkscape:export-filename="C:\Users\jlandrum\src\open-lab\logo.png"
   inkscape:export-xdpi="92.400002"
   inkscape:export-ydpi="92.400002"
   xmlns:inkscape="http://www.inkscape.org/namespaces/inkscape"
   xmlns:sodipodi="http://sodipodi.sourceforge.net/DTD/sodipodi-0.dtd"
   xmlns="http://www.w3.org/2000/svg"
   xmlns:svg="http://www.w3.org/2000/svg"
   xmlns:rdf="http://www.w3.org/1999/02/22-rdf-syntax-ns#"
   xmlns:cc="http://creativecommons.org/ns#"
   xmlns:dc="http://purl.org/dc/elements/1.1/"><metadata
   id="metadata41"><rdf:RDF><cc:Work
       rdf:about=""><dc:format>image/svg+xml</dc:format><dc:type
         rdf:resource="http://purl.org/dc/dcmitype/StillImage" /></cc:Work></rdf:RDF></metadata><defs
   id="defs39">
	
</defs><sodipodi:namedview
   pagecolor="#ffffff"
   bordercolor="#666666"
   borderopacity="1"
   objecttolerance="10"
   gridtolerance="10"
   guidetolerance="10"
   inkscape:pageopacity="0"
   inkscape:pageshadow="2"
   inkscape:window-width="1440"
   inkscape:window-height="787"
   id="namedview37"
   showgrid="false"
   inkscape:zoom="1"
   inkscape:cx="256.5"
   inkscape:cy="255.5"
   inkscape:window-x="0"
   inkscape:window-y="25"
   inkscape:window-maximized="1"
   inkscape:current-layer="Capa_1"
   showguides="false"
   inkscape:document-rotation="0"
   inkscape:pagecheckerboard="0" />
<rect
   style="display:inline;fill:#485a86;fill-opacity:1;stroke:#53676c;stroke-width:0.950196;stroke-linecap:round;stroke-linejoin:round"
   id="rect873"
   width="379.78381"
   height="379.78381"
   x="0.47509825"
   y="0.47509825"
   inkscape:label="square" /><path
   d="M 190.367,0 C 85.23,0 0,85.23 0,190.367 c 0,105.137 85.23,190.367 190.367,190.367 105.137,0 190.367,-85.23 190.367,-190.367 C 380.734,85.23 295.504,0 190.367,0 Z m 108.635,298.36 c -28.996,28.996 -67.57,44.959 -108.634,44.959 -41.064,0 -79.645,-15.969 -108.635,-44.959 -28.865,-28.876 -44.769,-67.227 -44.769,-107.993 0,-40.771 15.904,-79.128 44.769,-107.993 28.99,-28.996 67.57,-44.959 108.634,-44.959 41.054,0 79.639,15.969 108.629,44.959 28.871,28.865 44.763,67.221 44.763,107.993 0.006,40.766 -15.892,79.122 -44.757,107.993 z"
   fill="#83c4f2"
   id="path869"
   style="display:inline;stroke-width:1.00017037;stroke-miterlimit:4;stroke-dasharray:none;fill:#485a86;fill-opacity:1"
   inkscape:label="circle" />















<path
   style="fill:#ffffff;fill-opacity:1;stroke:#53676c;stroke-width:0.810165;stroke-linecap:round;stroke-linejoin:round;stroke-miterlimit:4;stroke-dasharray:none"
   d="m 243.04941,461.04816 c -1.32517,-0.13052 -5.35948,-0.52319 -8.96511,-0.8726 -34.3605,-3.32974 -69.75857,-16.81219 -98.55489,-37.5377 C 117.79001,409.87032 98.322443,389.99621 86.176299,372.25412 51.654689,321.82776 41.306343,260.10321 57.480034,201.09013 71.10539,151.37517 104.60742,107.39783 149.68471,80.055191 208.53444,44.358559 283.11018,40.91726 345.44941,71.021625 c 43.30915,20.914511 77.61962,55.875325 98.0887,99.947945 18.92562,40.74936 23.4491,89.31133 12.49361,134.1255 -14.10702,57.70569 -53.91569,107.48463 -107.50039,134.42437 -21.75104,10.93534 -44.62862,17.70652 -69.94309,20.70135 -5.55183,0.65681 -31.20666,1.25407 -35.53883,0.82737 z"
   id="path877"
   transform="scale(0.74362109)"
   sodipodi:insensitive="true"
   inkscape:label="fill" /><text
   xml:space="preserve"
   style="font-style:normal;font-variant:normal;font-weight:300;font-stretch:normal;font-size:105.098px;line-height:1.25;font-family:'Work Sans';-inkscape-font-specification:'Work Sans, Light';font-variant-ligatures:normal;font-variant-caps:normal;font-variant-numeric:normal;font-variant-east-asian:normal;stroke-width:0.743621"
   x="68.506279"
   y="216.54271"
   id="text881"
   inkscape:label="text"><tspan
     sodipodi:role="line"
     id="tspan879"
     x="68.506279"
     y="216.54271"
     style="font-style:normal;font-variant:normal;font-weight:300;font-stretch:normal;font-size:105.098px;font-family:'Work Sans';-inkscape-font-specification:'Work Sans, Light';font-variant-ligatures:normal;font-variant-caps:normal;font-variant-numeric:normal;font-variant-east-asian:normal;stroke-width:0.743621">open</tspan></text></svg>
